PathFileType	4	(X/Y/Z)	Kaydara	
DataRate	CameraRate	NumFrames	NumMarkers	Units	OrigDataRate	OrigDataStartFrame	OrigNumFrames	
120.00	120.00	4	72	mm	120.00	1	261	
Frame#	Time	Hips			RightUpLeg			RightLeg			RightFoot			RightFoot_End			LeftUpLeg			LeftLeg			LeftFoot			LeftFoot_End			Spine			Spine1			Spine2			Spine3			Neck			Head			Head_End			RightShoulder			RightArm			RightForeArm			RightHand			RightHandThumb1			RightHandThumb2			RightHandThumb3			RightHandThumb3_End			RightInHandIndex			RightHandIndex1			RightHandIndex2			RightHandIndex3			RightHandIndex3_End			RightInHandMiddle			RightHandMiddle1			RightHandMiddle2			RightHandMiddle3			RightHandMiddle3_End			RightInHandRing			RightHandRing1			RightHandRing2			RightHandRing3			RightHandRing3_End			RightInHandPinky			RightHandPinky1			RightHandPinky2			RightHandPinky3			RightHandPinky3_End			LeftShoulder			LeftArm			LeftForeArm			LeftHand			LeftHandThumb1			LeftHandThumb2			LeftHandThumb3			LeftHandThumb3_End			LeftInHandIndex			LeftHandIndex1			LeftHandIndex2			LeftHandIndex3			LeftHandIndex3_End			LeftInHandMiddle			LeftHandMiddle1			LeftHandMiddle2			LeftHandMiddle3			LeftHandMiddle3_End			LeftInHandRing			LeftHandRing1			LeftHandRing2			LeftHandRing3			LeftHandRing3_End			LeftInHandPinky			LeftHandPinky1			LeftHandPinky2			LeftHandPinky3			LeftHandPinky3_End			
		X1	Y1	Z1	X2	Y2	Z2	X3	Y3	Z3	X4	Y4	Z4	X5	Y5	Z5	X6	Y6	Z6	X7	Y7	Z7	X8	Y8	Z8	X9	Y9	Z9	X10	Y10	Z10	X11	Y11	Z11	X12	Y12	Z12	X13	Y13	Z13	X14	Y14	Z14	X15	Y15	Z15	X16	Y16	Z16	X17	Y17	Z17	X18	Y18	Z18	X19	Y19	Z19	X20	Y20	Z20	X21	Y21	Z21	X22	Y22	Z22	X23	Y23	Z23	X24	Y24	Z24	X25	Y25	Z25	X26	Y26	Z26	X27	Y27	Z27	X28	Y28	Z28	X29	Y29	Z29	X30	Y30	Z30	X31	Y31	Z31	X32	Y32	Z32	X33	Y33	Z33	X34	Y34	Z34	X35	Y35	Z35	X36	Y36	Z36	X37	Y37	Z37	X38	Y38	Z38	X39	Y39	Z39	X40	Y40	Z40	X41	Y41	Z41	X42	Y42	Z42	X43	Y43	Z43	X44	Y44	Z44	X45	Y45	Z45	X46	Y46	Z46	X47	Y47	Z47	X48	Y48	Z48	X49	Y49	Z49	X50	Y50	Z50	X51	Y51	Z51	X52	Y52	Z52	X53	Y53	Z53	X54	Y54	Z54	X55	Y55	Z55	X56	Y56	Z56	X57	Y57	Z57	X58	Y58	Z58	X59	Y59	Z59	X60	Y60	Z60	X61	Y61	Z61	X62	Y62	Z62	X63	Y63	Z63	X64	Y64	Z64	X65	Y65	Z65	X66	Y66	Z66	X67	Y67	Z67	X68	Y68	Z68	X69	Y69	Z69	X70	Y70	Z70	X71	Y71	Z71	X72	Y72	Z72	

1	0.0	2081.203	893.81699	129.612	2145.9213912335167	887.8465715286877	74.52189685799937	2062.1634787746807	488.18998405190575	-16.870089381118582	2046.9830902469673	106.91035754011499	-72.69815248071781	1939.399298307338	28.886421997807346	62.48332432820311	2031.390306147097	874.9585677639125	198.0524198666817	1932.304995668024	481.42025487742205	301.07899742171264	1834.628533201689	65.50956933076104	404.2033081687289	1687.5490481874053	-1.7903537390073732	304.19367549788876	2014.854090622689	1009.5533805653587	79.11996803066246	1951.7978398019218	1066.1551720839882	32.294744358975116	1881.935503525236	1118.1818830912928	-18.404780029517315	1809.3138939462247	1156.2566599396914	-69.49498682939016	1730.9921526171922	1198.747039117507	-121.89862302148866	1657.0798395142174	1235.4727174847417	-166.75396371443625	1518.6402889278918	1314.2346555539646	-173.75729304764747	1772.205181699935	1184.3467248245656	-125.69051383678949	1814.541957838407	1159.7801381720801	-209.43384758270935	1844.6253068555047	943.5448138310521	-181.18827695621644	1892.5207329427371	755.2430530969641	-173.3432647592478	1880.9868299941743	742.2519047708087	-191.47598527928022	1864.5637066343047	724.5239402463404	-191.33670030976006	1855.3805503734484	710.5768651327575	-188.44539960115816	1849.6530970662805	697.5799008772926	-183.64459272635372	1889.1082898572477	734.9927217173506	-184.32354970898618	1887.488292193295	699.5207960616226	-185.5395476854431	1880.4849384684562	676.5823000282179	-179.97194666535435	1871.1953216368336	667.3370068538112	-175.17186736308514	1860.177065089476	663.0678214736358	-170.2958405808307	1895.0156316313685	731.9550298655785	-176.3763181918149	1896.632486560311	695.7131898103988	-173.26552930057957	1889.767817403221	670.3991520659122	-166.12959650305322	1878.9332584543406	659.1089797943217	-159.8295340540107	1867.0586320463972	654.3715753354559	-154.24686217522648	1899.3045804662222	730.6788310370468	-170.7776655476504	1904.693456638554	696.9879061292797	-163.26755222206302	1899.5013763278398	674.6917558217314	-155.96821190339455	1889.4707415271098	663.6781130044961	-149.31794391379867	1878.504691680954	659.1653081808181	-143.7971309694084	1903.7112158925997	730.5133595906375	-163.91863922825755	1911.618579390329	699.3804712143898	-152.96028544779819	1908.671245885648	681.3112451972164	-145.46329070100947	1901.9403216192527	673.1737063645705	-139.81346280616248	1892.5631268630993	669.1161562514457	-134.4630209717433	1741.477750799538	1183.5465219601388	-83.01253603726508	1715.1994463151755	1138.9617916318546	4.172821432329302	1845.723274027176	966.5757671564239	-63.800996755470486	1951.0603568539434	809.309189480039	-131.71661426080686	1947.7563834536445	805.4839463914419	-156.71210925601866	1966.207103323996	799.8236158322101	-172.04842810199125	1981.4389538678613	793.6667249261446	-180.17018228426903	1996.1754635300726	786.6390951742685	-184.75224060317652	1954.5601421780298	796.5152804364112	-150.3619283188878	1974.9607457813165	771.6805338639698	-167.08142201509756	1996.8207874970742	758.0163458394535	-175.89666285301777	2011.093554627598	755.2388628474308	-180.6159662621468	2023.3674135585638	756.7966146689727	-184.00874271731428	1960.69504692421	791.5271131984214	-142.6873613365258	1983.9093568607016	764.6049213441099	-154.84468249401957	2008.515901288252	749.121463108921	-163.39345997616635	2026.0967584808598	745.4955452329358	-168.57348356559626	2039.702212832991	747.0663208914153	-172.03607874682038	1964.4505795783969	788.5805550544893	-136.85386344658167	1988.3451170963085	761.7307561986695	-142.72991919484448	2010.525852549741	747.6925983600919	-149.06768454263323	2027.8735601547776	743.9069068123443	-153.47295206936528	2040.8507257292235	745.247264708117	-156.44847354008402	1968.6463127387922	786.3463987837273	-129.52603770969742	1992.9602636991647	760.146105786046	-130.45446230655577	2011.762478136445	748.1756663139092	-133.76677423945594	2024.9193920390699	745.0616335354589	-136.12729172547574	2036.704780064972	746.045966851165	-138.27238689283675
2	0.008	2081.203	893.81699	129.612	2146.4761266543082	888.1302045841716	74.79509383006949	2062.0983331948123	488.5248832680926	-16.286667159883606	2046.6485533592308	106.92974256085918	-71.12826972209064	1938.8495130181611	29.097364060596387	64.10281153936933	2030.8112146199142	874.6698392291322	197.79797488799878	1931.544104373007	481.3310629401014	301.4396560093915	1833.6456709002314	65.74891683048271	405.50031850737633	1686.5605386046284	-1.270474152381208	305.34770544383207	2014.8902701390743	1009.5654574138135	79.07425047199438	1951.8677063902353	1066.1612939019544	32.18902763555881	1882.042020910226	1118.1792921968254	-18.579429928360298	1809.4610877574264	1156.243491315705	-69.74554994380374	1731.175149787312	1198.7200249272241	-122.22459145920853	1657.2178877636586	1235.3745224764923	-167.08944525726824	1518.8122320138423	1314.175108211111	-174.34258698995046	1772.517189246044	1184.5288986330143	-125.94062880771526	1815.475752274475	1160.953294752601	-209.6395349690028	1846.5275495270382	944.5057515170851	-183.30080571973662	1896.2460948041698	757.0548567120662	-177.215387274274	1884.9921596200188	744.4040882367015	-195.5566198646063	1868.716812388154	726.8301218700788	-195.91001945262204	1859.6281091427131	712.9610193410722	-193.3816098382131	1853.9721654462505	700.0040175631325	-188.90025515730372	1893.1246103822373	737.0860128791788	-188.47602082951838	1891.850218582347	701.8715640911809	-190.27275968360553	1885.003898448174	679.0331275529549	-185.20659459248932	1875.7461567220864	669.810482952374	-180.7104849949758	1864.709936574439	665.5333547982398	-176.0808139050575	1898.9929468303299	733.9559869205393	-180.56701255703626	1900.9258282781434	697.9153618029255	-178.0433097931272	1894.2261376774136	672.6973938951057	-171.45782279520375	1883.4269817386541	661.4282483300302	-165.52606266593608	1871.531210856538	656.6790971711035	-160.21371439745903	1903.2463833835238	732.6086454166676	-174.97980287640365	1908.8901717800961	699.0382333808693	-168.00359611365496	1903.8348648976632	676.8120847781348	-161.18646161445227	1893.834648503023	665.8114327676224	-154.89275083652504	1882.8469530993707	661.2841284097825	-149.62671983977978	1907.5952937877987	732.3484974217466	-168.1229939928596	1915.7038719122877	701.2700781657542	-157.65339742724242	1912.8539902725647	683.2349585539754	-150.54402001996883	1906.1394185266172	675.0962775293293	-145.15497370667538	1896.739685609235	671.0197644877383	-140.03063958641522	1741.5113518976818	1183.3149239093977	-83.375789813853	1714.603794791585	1137.702909967156	3.3280715737626343	1846.5232144248585	966.6908659078875	-65.89583184639329	1953.8610659435324	810.9605356080102	-135.08185307141366	1950.8304940731077	807.4017788527021	-160.00106655123514	1969.5255120662798	801.9478187313188	-175.12672516249327	1984.9294337874514	795.9226441816982	-183.12609855478982	1999.8110622124732	788.9945376673955	-187.6269390700601	1957.6749874084726	798.4212404026994	-153.75219106996488	1978.525309950781	773.9019957179469	-170.50866392715355	2000.651962898958	760.4214628202543	-179.2368364067336	2015.028560541494	757.7237651090921	-183.8174155830715	2027.3465866944155	759.3243427126852	-187.03830070032163	1963.7973229594925	793.3877313459964	-146.13712561023712	1987.4434922307594	766.748751018699	-158.36272818327586	2012.3377907916354	751.458651726985	-166.82409035613514	2030.0423878526406	747.9255996665069	-171.8403838935775	2043.6954317814061	749.5415885582275	-175.1166755598171	1967.5330739317528	790.4014326398861	-140.34603311427682	1991.7991477303842	763.7719719011857	-146.3239281896197	2014.2267565282602	749.894692460217	-152.59314129658244	2031.6917343130583	746.194509081941	-156.84453070655331	2044.7126576617125	747.5754628478088	-159.64679998098254	1971.6884620303833	788.1095967246132	-133.05567084704805	1996.320383999366	762.0771003423354	-134.10502180856176	2015.3125302901183	750.2225758479311	-137.37389395829746	2028.5512265851348	747.1646688923911	-139.62771942332745	2040.3732126776988	748.1813660154528	-141.62252723021487
3	0.017	2081.203	893.81699	129.612	2147.035599988473	888.4191639748253	75.07430033423886	2062.106836898941	488.84088481947083	-15.657759255155876	2045.8316712088736	106.88317876172485	-69.30236079817901	1937.815730119788	29.24078757878512	65.975148670693	2030.2268478767314	874.3754865624612	197.53750150302324	1930.7864393711889	481.19845321252154	301.6534173539105	1832.694556801472	65.93654466073298	406.6269159425682	1685.60079856921	-0.8019506408652827	306.33531706453675	2014.9278567510016	1009.5782394754142	79.0288504382687	1951.9412279403366	1066.1687885459644	32.08188496178786	1882.153545412309	1118.1774372060513	-18.757256588217487	1809.6132129613197	1156.2289180585562	-69.99967332303808	1731.363508826052	1198.6895029698915	-122.5554123895895	1657.3624042031017	1235.2706232246912	-167.43241956480642	1518.9931653407752	1314.1184128563482	-174.89381067611038	1772.8316519982156	1184.702644526896	-126.19345052133274	1816.3986754026128	1162.0834876584915	-209.81664190646725	1848.3814217738488	945.3585954259319	-185.5817084840765	1899.8897269633142	758.7822388068815	-181.25213242784284	1888.9158163612258	746.4709499953909	-199.80016205865735	1872.7829843700385	729.056647016095	-200.64614061834797	1863.7842989918709	715.2700303510325	-198.47994929048465	1858.1955127243389	702.3572371083307	-194.31697150077596	1897.0567857764722	739.0954510973519	-192.78868049280837	1896.1202894722328	704.1435552779509	-195.1589386407294	1889.424189686479	681.4113012092822	-190.5913875464852	1880.1945155527815	672.2156791901068	-186.39974801509229	1869.1374637984845	667.9346115498938	-182.0183676500211	1902.8842328269975	735.8745818527073	-184.91661819488388	1905.1245960550948	700.0409241437101	-182.97226788968956	1898.58222126076	674.9258925375539	-176.93400540340426	1887.813762802633	663.6831392729218	-171.3710823715894	1875.8936620690463	658.9266620099772	-166.3311425064233	1907.1010270653155	734.4570006442092	-179.34010745957605	1912.991115066828	701.0129748119191	-172.89014599016616	1908.0656880098475	678.8629948759243	-166.55227376918816	1898.0912382338038	667.8806000696819	-160.61556576509756	1887.078843713472	663.3429980811463	-155.6062454739226	1911.3910681882612	734.1032352067809	-172.4850837855291	1919.6922831960176	703.0852605477817	-162.496856540814	1916.9340341520387	685.0894334792044	-155.77256232953425	1910.2322715420669	676.953575702206	-150.64454266429843	1900.807214140171	672.8618968892547	-145.74797652989804	1741.5529022664973	1183.086350268126	-83.74490977960942	1714.0187369503922	1136.4669436607733	2.477484130872956	1847.2807472662346	966.7979815211834	-67.95368983562979	1956.5175172772138	812.5288192585082	-138.29504658301124	1953.705621788761	809.2112685330654	-163.10179273670062	1972.599227086136	803.9361323343568	-178.0251842276789	1988.1481650341411	798.0259183206551	-185.91033510202865	2003.156441032622	791.1854529655462	-190.33873715589215	1960.6027577179934	800.2259004574457	-156.95480476810306	1981.8559840732178	776.0005093306493	-173.72148709295428	2004.2177749754433	762.6851348360789	-182.36745997261963	2018.67897640994	760.053528087486	-186.82542906883342	2031.0254940906725	761.6841238020393	-189.89659384131758	1966.7272059141949	795.1542540191768	-149.40758702568363	1990.7675172519655	768.7812678380911	-161.6798697907559	2015.917311554552	753.6653584693107	-170.06034588794824	2033.7234618271686	750.2091433228892	-174.93294010879413	2047.407427893336	751.8565681402137	-178.04746483547834	1970.4547569631907	792.1339064067857	-143.66524733133474	1995.0686424572996	765.7144291216661	-149.73047342268288	2017.7172071857526	751.9823819079394	-155.9381030221593	2035.2792199250769	748.3528140628763	-160.05561693804034	2048.328782961717	749.7616721646654	-162.7080297678034	1974.5844195677796	789.7912023190628	-136.42225193900538	1999.521582663731	763.9213602302754	-137.58454121999236	2018.6864319135511	752.1719290943901	-140.8176221065869	2031.9938616728136	749.1601122576141	-142.98034129278886	2043.8400377666455	750.1984100869387	-144.84616257716036
4	0.025	2081.203	893.81699	129.612	2147.5668728163614	888.7103776318962	75.33359257021296	2062.228907000143	489.13850828927764	-15.082595098507259	2044.7586257663813	106.80482545734284	-67.48773359410211	1936.522490575155	29.35316079114083	67.83295810467702	2029.6747680571061	874.0776810643703	197.2896945654031	1930.130675001782	480.96510437078456	301.5625990194898	1831.8658853781988	66.01730399334001	407.44860194105075	1684.7521857704799	-0.4225440189181042	307.01767018801826	2014.9506395652313	1009.5957211379653	79.01506352341829	1951.994669610428	1066.1863439483736	32.02052072640909	1882.2392323893685	1118.1884318875698	-18.87734376057922	1809.736851772629	1156.22980814351	-70.18911088224878	1731.519061723503	1198.6786910902244	-122.8106671521763	1657.4691048162083	1235.1887775335226	-167.68964946265382	1519.1174863112467	1314.0598685387263	-175.27039894642866	1773.110528378687	1184.8938609058025	-126.37635801584305	1817.2765776756496	1163.164868840893	-209.89024685293282	1850.1470225086669	946.1237058029614	-187.8339572920299	1903.4872698525642	760.4253132831338	-185.16415457829243	1892.7894287218223	748.4304466488406	-203.88873158075492	1876.8032981932058	731.1770908126742	-205.19626371407077	1867.8989382528594	717.4775878095747	-203.37106692693226	1862.3820869493534	704.616050536562	-199.50910398215626	1900.9431320268295	741.007209055091	-196.94464575229307	1900.3518509005335	706.318098432731	-199.84243447869514	1893.8132381565415	683.7006081884327	-195.7432799473783	1884.615647174319	674.5389047216951	-191.8415572452739	1873.5407432682343	670.2606618092888	-187.69927554425198	1906.7333228661548	737.7060373511985	-189.1122632734722	1909.2902674973082	702.08526976181	-187.70388844765336	1902.9135981384563	677.0839360776855	-182.18038709602055	1892.180898681506	665.8765705560858	-176.96899032653525	1880.2398363778532	661.1204934687845	-172.1915211024302	1910.9158388261112	736.2255949677866	-183.54952930330813	1917.0624022546504	702.9194942166715	-177.58954105228062	1912.2746259698788	680.8564848794546	-171.7032327921017	1902.33106668341	669.9017795334776	-166.1071380671074	1891.2972543624207	665.3614992450467	-161.3453355029465	1915.1496173864198	735.7871924261004	-176.70136865594824	1923.6543731177653	704.8455750011314	-167.16427330270847	1920.9946438120169	686.8998592493386	-160.80396133950237	1914.3097449514132	678.7747507520613	-155.9255417893628	1904.8624574609307	674.6752671766612	-151.2489008396536	1741.5673320322683	1182.8769295099569	-84.03993931762743	1713.428460860985	1135.3040086687004	1.7171062788648415	1847.9743255129501	966.936938516484	-69.84402629393624	1959.018841613128	814.0740928444957	-141.24597451291044	1956.3924660829841	810.9941034020234	-165.92699852040423	1975.4557852529251	805.8743217509116	-180.6503765780838	1991.1300486299594	800.061996167372	-188.42359186428814	2006.2489160303885	793.2943324357072	-192.78207291687986	1963.3398062823446	802.0026976513286	-159.88166854128502	1984.9469656760166	778.0536683878546	-176.6474372548751	2007.5145939600038	764.8821701180776	-185.21188300850415	2022.0482617098692	762.3003535340414	-189.55255730216638	2034.4173286114537	763.945416431002	-192.48170991830125	1969.469438768255	796.8911279824001	-152.4050336800229	1993.8577845631771	770.7661148268991	-164.7146244118099	2019.2316688427468	755.8009780377413	-173.0153532577218	2037.1250042170436	752.4018497008943	-177.7508613033029	2050.833523473168	754.0636487909073	-180.71214224021745	1973.1921512301997	793.8360025445586	-146.713579700878	1998.1152866428804	767.6099739326528	-152.85934694681126	2020.9580892173956	754.0025774298664	-159.00681534643093	2038.603625032308	750.4244879734126	-162.9970637008823	2051.6760057385272	751.8451618493598	-165.50774449274496	1977.3018249120923	791.4414262265208	-139.521386617999	2002.5121849889465	765.7187355138925	-140.79222024421526	2021.8295336379026	754.0577321716155	-143.9913540164566	2035.1964187809674	751.0779515478022	-146.06812771425652	2047.0619610443987	752.1235482238981	-147.81235781183682
